<svg width="120" height="120" viewBox="0 0 24 24" 
     fill="none" xmlns="http://www.w3.org/2000/svg">

  <path d="M6.6 10.8C8.2 14 10 15.8 13.2 17.4L15 15.6
           C15.3 15.3 15.8 15.2 16.2 15.3
           C17.3 15.7 18.5 16 19.7 16
           C20.3 16 20.8 16.5 20.8 17.1V20
           C20.8 20.6 20.3 21 19.7 21
           C10.8 21 3 13.2 3 4.3
           C3 3.7 3.4 3.2 4 3.2H6.9
           C7.5 3.2 8 3.7 8 4.3
           C8 5.5 8.3 6.7 8.7 7.8
           C8.8 8.2 8.7 8.7 8.4 9L6.6 10.8Z"

        stroke="#66D0C8"
        stroke-width="1.8"
        stroke-linecap="round"
        stroke-linejoin="round"/>
</svg>
